<?xml version="1.0" encoding="iso-8859-1"?>
<!-- Uploaded to: SVG Repo, www.svgrepo.com, Generator: SVG Repo Mixer Tools -->
<!DOCTYPE svg PUBLIC "-//W3C//DTD SVG 1.1//EN" "http://www.w3.org/Graphics/SVG/1.1/DTD/svg11.dtd">
<svg fill="#000000" height="800px" width="800px" version="1.1" id="Capa_1" xmlns="http://www.w3.org/2000/svg" xmlns:xlink="http://www.w3.org/1999/xlink" 
	 viewBox="0 0 470 470" xml:space="preserve">
<g>
	<path d="M433,169.189H37c-4.143,0-7.5,3.358-7.5,7.5v222.489c0,4.142,3.357,7.5,7.5,7.5h190.5V462.5c0,4.142,3.357,7.5,7.5,7.5
		s7.5-3.358,7.5-7.5v-55.823H433c4.143,0,7.5-3.358,7.5-7.5V176.689C440.5,172.547,437.143,169.189,433,169.189z M176.5,391.677
		v-59.163h117v59.163H176.5z M176.5,317.514v-59.163h117v59.163H176.5z M176.5,243.352v-59.163h117v59.163H176.5z M308.5,258.352
		h117v59.163h-117V258.352z M425.5,243.352h-117v-59.163h117V243.352z M161.5,184.189v59.163H97c-4.143,0-7.5,3.358-7.5,7.5
		s3.357,7.5,7.5,7.5h64.5v59.163h-117v-59.163H67c4.143,0,7.5-3.358,7.5-7.5s-3.357-7.5-7.5-7.5H44.5v-59.163H161.5z M44.5,332.514
		h117v59.163h-117V332.514z M308.5,391.677v-59.163h117v59.163H308.5z"/>
	<path d="M165.405,84.594h15.492c1.306,9.464,5.037,18.162,10.555,25.44l-10.968,10.968c-2.929,2.929-2.929,7.677,0,10.606
		c1.465,1.465,3.385,2.197,5.304,2.197s3.839-0.732,5.304-2.197l10.967-10.967c7.278,5.519,15.976,9.25,25.44,10.556v15.492
		c0,4.142,3.357,7.5,7.5,7.5s7.5-3.358,7.5-7.5v-15.492c9.464-1.306,18.162-5.037,25.44-10.556l10.967,10.967
		c1.465,1.465,3.385,2.197,5.304,2.197s3.839-0.732,5.304-2.197c2.929-2.929,2.929-7.677,0-10.606l-10.968-10.968
		c5.519-7.278,9.25-15.976,10.555-25.44h15.492c4.143,0,7.5-3.358,7.5-7.5s-3.357-7.5-7.5-7.5h-15.492
		c-1.306-9.464-5.037-18.162-10.555-25.44l10.968-10.968c2.929-2.929,2.929-7.677,0-10.606c-2.93-2.929-7.678-2.929-10.607,0
		L267.94,33.548c-7.278-5.519-15.976-9.25-25.44-10.556V7.5c0-4.142-3.357-7.5-7.5-7.5s-7.5,3.358-7.5,7.5v15.492
		c-9.464,1.306-18.162,5.037-25.44,10.556l-10.967-10.967c-2.93-2.929-7.678-2.929-10.607,0c-2.929,2.929-2.929,7.677,0,10.606
		l10.968,10.968c-5.519,7.278-9.25,15.976-10.555,25.44h-15.492c-4.143,0-7.5,3.358-7.5,7.5S161.263,84.594,165.405,84.594z
		 M235,37.464c21.852,0,39.63,17.778,39.63,39.63s-17.778,39.63-39.63,39.63s-39.63-17.778-39.63-39.63S213.148,37.464,235,37.464z"
		/>
</g>
</svg>